<?xml version="1.0" encoding="iso-8859-1"?>
<!-- Generator: Adobe Illustrator 19.0.0, SVG Export Plug-In . SVG Version: 6.00 Build 0)  -->
<svg version="1.1" id="Capa_1" xmlns="http://www.w3.org/2000/svg" xmlns:xlink="http://www.w3.org/1999/xlink" x="0px" y="0px"
	 viewBox="0 0 512 512" style="enable-background:new 0 0 512 512;" xml:space="preserve">
<g>
	<g>
		<path d="M512,313.608V198.392l-48.417-9.398c-3.575-11.049-8.04-21.811-13.342-32.161l27.656-40.891l-81.388-81.553L355.565,61.96
			c-10.468-5.39-21.365-9.922-32.558-13.543L313.608,0H198.392l-9.399,48.417c-11.048,3.575-21.812,8.04-32.161,13.342
			l-40.89-27.656L34.389,115.49l27.571,40.945c-5.39,10.468-9.922,21.365-13.543,32.558L0,198.392v115.217l48.417,9.398
			c3.575,11.049,8.04,21.811,13.342,32.162l-27.656,40.89l81.388,81.553l40.944-27.571c10.468,5.39,21.364,9.921,32.558,13.542
			L198.392,512h115.216l9.399-48.417c11.049-3.575,21.811-8.04,32.161-13.342l40.891,27.656l81.553-81.388l-27.572-40.944
			c5.389-10.468,9.921-21.364,13.542-32.558L512,313.608z M258.083,415.014c-87.681,0-159.014-71.333-159.014-159.014
			S170.402,96.986,258.083,96.986S417.097,168.319,417.097,256S345.763,415.014,258.083,415.014z"/>
	</g>
</g>
<g>
	<g>
		<path d="M300.282,241.173c5.153-7.908,8.161-17.335,8.161-27.457c0-27.814-22.629-50.443-50.444-50.443
			c-27.814,0-50.443,22.629-50.443,50.443c0,10.149,3.023,19.601,8.202,27.521c-23.09,11.331-39.028,35.08-39.028,62.489v15h162.707
			v-15C339.436,276.267,323.441,252.479,300.282,241.173z"/>
	</g>
</g>
<g>
</g>
<g>
</g>
<g>
</g>
<g>
</g>
<g>
</g>
<g>
</g>
<g>
</g>
<g>
</g>
<g>
</g>
<g>
</g>
<g>
</g>
<g>
</g>
<g>
</g>
<g>
</g>
<g>
</g>
</svg>
