<svg id="Layer_1" enable-background="new 0 0 56 56" height="512" viewBox="0 0 56 56" width="512" xmlns="http://www.w3.org/2000/svg"><path d="m26 21.677v1.846l8-3.2v-1.846z"/><circle cx="22" cy="36" r="2"/><path d="m0 9h2v38h-2z"/><path d="m6 6h-2v2 40 2h2z"/><path d="m10 3h-2v2 46 2h2z"/><path d="m52 48v-40-2h-2v44h2z"/><path d="m48 51v-46-2h-2v50h2z"/><path d="m54 9h2v38h-2z"/><path d="m12 0v2 52 2h32v-2-52-2zm24 21v11c0 2.206-1.794 4-4 4s-4-1.794-4-4 1.794-4 4-4c.732 0 1.409.212 2 .556v-6.079l-8 3.2v10.323c0 2.206-1.794 4-4 4s-4-1.794-4-4 1.794-4 4-4c.732 0 1.409.212 2 .556v-7.556c0-1.274.019-2.55-.001-3.823-.004-.239.018-.454.142-.666.233-.397.672-.514 1.073-.674.48-.192.96-.384 1.441-.576 1.38-.552 2.76-1.104 4.14-1.656 1.118-.447 2.236-.894 3.354-1.342.399-.16.804-.364 1.236-.181.36.152.615.525.615.917z"/><circle cx="32" cy="32" r="2"/></svg>