<svg height="512" viewBox="0 0 512 512" width="512" xmlns="http://www.w3.org/2000/svg"><g id="solid"><path d="m434.607 107.894a8 8 0 0 1 2.96 6.211v198a53.222 53.222 0 0 1 32 13.157v-263.078a10 10 0 0 0 -12.061-9.784l-268 56.421a10.046 10.046 0 0 0 -7.939 9.786v193.5a53.222 53.222 0 0 1 32 13.157v-167.364a8 8 0 0 1 6.352-7.829l208-43.789a8 8 0 0 1 6.688 1.612z"/><path d="m178.349 328a37.529 37.529 0 0 0 -29.878 14.938l-11.288 15.05a8 8 0 0 1 -12.8 0l-11.283-15.05a37.529 37.529 0 0 0 -29.882-14.938 37.294 37.294 0 0 0 -36.233 28.29 47.421 47.421 0 0 0 13.974 46.5l69.824 64.006 69.824-64.006a47.417 47.417 0 0 0 13.974-46.5 37.293 37.293 0 0 0 -36.232-28.29zm-37.6 105.373-4.309 4.309a8 8 0 0 1 -11.314-11.315l4.309-4.308a8 8 0 0 1 11.314 11.314zm47.4-47.394-25.857 25.851a8 8 0 0 1 -11.313-11.314l25.852-25.852a8 8 0 0 1 11.313 11.315z"/><path d="m470.581 356.29a37.348 37.348 0 0 0 -66.11-13.352l-11.288 15.05a8 8 0 0 1 -12.8 0l-11.283-15.05a37.529 37.529 0 0 0 -29.882-14.938 37.294 37.294 0 0 0 -36.233 28.29 47.421 47.421 0 0 0 13.974 46.5l69.824 64.006 69.824-64.006a47.417 47.417 0 0 0 13.974-46.5zm-73.832 77.083-4.309 4.309a8 8 0 0 1 -11.314-11.315l4.309-4.308a8 8 0 0 1 11.314 11.314zm47.395-47.394-25.852 25.851a8 8 0 0 1 -11.313-11.314l25.852-25.852a8 8 0 0 1 11.313 11.315z"/></g></svg>