<svg id="Capa_1" enable-background="new 0 0 510.039 510.039" height="512" viewBox="0 0 510.039 510.039" width="512" xmlns="http://www.w3.org/2000/svg"><g><path d="m509.436 64.713-63.64-63.639-35 35-31.18-31.181-21.213 21.213 31.18 31.181-23.69 23.689-31.18-31.18-21.214 21.214 31.18 31.18-66.153 66.153c-19.138-10.274-39.374-15.719-59.157-15.796-.136 0-.271 0-.407 0-33.388 0-62.335 16.034-76.989 44.332-6.828 13.185-19.951 21.611-34.249 21.992-115.462 3.084-145.288 141.369-51.371 235.284 59.896 59.897 151.922 77.032 204.221 24.731 19.514-19.514 30.255-45.83 31.063-76.102.382-14.299 8.809-27.422 21.994-34.249 44.105-22.847 58.56-80.632 28.536-136.553l66.153-66.153 31.18 31.181 21.213-21.213-31.18-31.181 23.69-23.69 31.18 31.181 21.213-21.213-31.18-31.181zm-42.427 0-227.963 227.964c-2.546-4.302-5.645-8.314-9.272-11.941-3.661-3.661-7.682-6.749-11.949-9.265l227.97-227.971zm-258.448 237.235c11.724 11.724 11.725 30.702 0 42.427-11.697 11.695-30.73 11.695-42.427 0-11.724-11.724-11.725-30.701 0-42.427 11.699-11.697 30.729-11.695 42.427 0zm91.273 39.948c-22.881 11.849-37.514 34.873-38.186 60.088-1.378 51.665-40.713 84.446-96.053 76.969-31.33-4.233-62.592-20.574-88.028-46.01-74.317-74.317-57.85-181.713 30.958-184.081 25.214-.672 48.239-15.304 60.09-38.186 15.942-30.788 54.455-34.292 87.485-19.904l-72.553 72.554c-14.074.886-27.894 6.68-38.625 17.411-23.448 23.447-23.451 61.402 0 84.852 36.442 36.443 99.142 12.545 102.296-38.656l72.522-72.521c14.42 33.104 10.814 71.574-19.906 87.484z"/><path d="m60.009 135c24.813 0 45-20.187 45-45v-30.035c12.543 9.435 28.131 15.035 45 15.035v-30c-24.813 0-45-20.187-45-45h-30v47.58c-4.695-1.665-9.742-2.58-15-2.58-24.813 0-45 20.187-45 45s20.187 45 45 45zm0-60c8.271 0 15 6.729 15 15s-6.729 15-15 15-15-6.729-15-15 6.729-15 15-15z"/><path d="m450.009 360h-30v47.58c-4.695-1.665-9.742-2.58-15-2.58-24.813 0-45 20.186-45 45s20.187 45 45 45 45-20.186 45-45v-30.035c12.543 9.436 28.131 15.035 45 15.035v-30c-24.813 0-45-20.186-45-45zm-45 105c-8.271 0-15-6.728-15-15s6.729-15 15-15 15 6.728 15 15-6.729 15-15 15z"/></g></svg>